<?xml version="1.0" standalone="no"?>
<!DOCTYPE svg PUBLIC "-//W3C//DTD SVG 20010904//EN"
 "http://www.w3.org/TR/2001/REC-SVG-20010904/DTD/svg10.dtd">
<svg version="1.0" xmlns="http://www.w3.org/2000/svg"
 width="50.000000pt" height="50.000000pt" viewBox="0 0 1200.000000 1200.000000"
 preserveAspectRatio="xMidYMid meet">
  <metadata>
  Created by potrace 1.16, written by Peter Selinger 2001-2019
  </metadata>
  <g transform="translate(0.000000,1200.000000) scale(0.100000,-0.100000)"
  fill="#000000" stroke="none">
    <path d="M2160 7936 l0 -303 163 -7 c89 -4 179 -9 200 -12 l37 -6 0 -1657 0
    -1657 -22 -44 c-36 -72 -97 -96 -275 -111 l-143 -12 0 -289 0 -288 970 0 970
    0 0 299 c0 277 -1 300 -17 305 -10 2 -144 7 -298 11 -154 3 -288 9 -297 11
    -17 5 -18 47 -18 690 l0 684 870 0 870 0 0 365 0 365 -870 0 -870 0 0 615 0
    615 653 0 c735 0 703 3 741 -75 17 -34 20 -68 24 -232 l5 -192 46 5 c66 7 619
    44 653 44 l28 0 0 590 0 590 -1710 0 -1710 0 0 -304z m3204 137 c30 -10 64
    -31 91 -57 66 -65 73 -103 80 -431 6 -270 6 -283 -15 -338 -52 -140 -253 -214
    -395 -146 -60 29 -130 113 -163 196 -13 32 -32 76 -43 98 -10 22 -19 48 -19
    57 0 9 -11 25 -25 36 -14 11 -25 25 -25 30 0 6 -13 19 -30 29 -16 9 -30 20
    -30 24 0 4 -14 10 -30 14 -24 5 -30 11 -25 25 5 15 -1 20 -30 26 -26 5 -35 10
    -31 21 17 43 18 63 3 63 -11 0 -5 25 27 110 29 78 46 110 57 110 10 0 23 16
    33 40 15 37 19 40 55 40 25 0 41 5 45 15 4 12 24 15 86 15 47 0 80 4 80 10 0
    6 18 10 40 10 22 0 40 4 40 9 0 23 144 19 224 -6z m-398 -1939 c109 -37 165
    -116 172 -245 7 -129 -34 -224 -121 -278 -58 -35 -139 -44 -289 -31 -62 6
    -201 17 -308 25 -107 8 -196 20 -198 25 -2 6 -19 10 -38 10 -19 0 -34 5 -34
    10 0 6 -32 10 -76 10 -64 0 -75 2 -70 15 4 12 -3 15 -34 15 l-39 0 14 40 c13
    36 12 40 -2 40 -8 0 -13 6 -10 13 2 6 20 53 38 104 26 70 39 93 54 95 12 2 23
    15 29 36 8 30 12 32 52 32 30 0 44 4 44 13 0 10 32 17 118 26 64 7 122 17 127
    21 6 5 73 14 150 20 77 6 165 14 195 19 75 11 168 5 226 -15z m-1560 -2040 c6
    15 10 14 34 -9 16 -15 31 -26 34 -26 3 1 19 -5 35 -13 16 -9 31 -13 34 -9 3 3
    20 1 36 -5 17 -6 33 -7 36 -2 3 5 19 5 37 0 17 -5 34 -7 38 -5 5 3 32 0 61 -6
    30 -6 64 -12 76 -14 51 -7 135 -76 157 -129 51 -122 -39 -254 -183 -271 -65
    -7 -333 12 -341 24 -3 5 -51 14 -107 21 -73 9 -103 17 -103 27 0 8 -13 13 -36
    13 -29 0 -35 3 -30 16 16 41 17 62 4 66 -10 2 1 41 43 152 45 119 58 145 66
    131 9 -14 13 -9 29 35 l19 52 27 -33 c23 -28 28 -30 34 -15z"/>
    <path d="M5920 7926 l0 -314 88 -6 c48 -4 103 -10 121 -13 l35 -6 -52 52
    c-122 121 -143 284 -53 408 64 88 164 120 415 133 94 5 263 14 376 20 113 6
    266 17 340 24 124 12 75 13 -567 15 l-703 1 0 -314z"/>
    <path d="M5798 4133 l-48 -4 1 -127 c0 -117 1 -124 13 -87 24 74 55 122 113
    174 l58 51 -45 -2 c-25 -1 -66 -3 -92 -5z"/>
  </g>
</svg>
